<svg xmlns="http://www.w3.org/2000/svg" width="1280" height="720" viewBox="0 0 1280 720">
  <defs>
    <filter id="s3" x="-20%" y="-20%" width="140%" height="140%">
      <feDropShadow dx="0" dy="12" stdDeviation="16" flood-color="#000" flood-opacity=".35"/>
    </filter>
  </defs>

  <g filter="url(#s3)">
    <rect x="160" y="120" width="960" height="540" rx="28" fill="#0b1223" stroke="#38bdf8" stroke-opacity=".22" stroke-width="2"/>

    <!-- 4 role cards -->
    <g transform="translate(220 180)">
      <g>
        <rect x="0" y="0" width="420" height="190" rx="22" fill="#0f172a" stroke="#38bdf8" stroke-opacity=".16"/>
        <circle cx="90" cy="78" r="38" fill="#38bdf8" opacity=".85"/>
        <rect x="55" y="122" width="70" height="46" rx="23" fill="#38bdf8" opacity=".35"/>
        <rect x="155" y="55" width="220" height="18" rx="9" fill="#94a3b8" opacity=".35"/>
        <rect x="155" y="85" width="170" height="14" rx="7" fill="#94a3b8" opacity=".25"/>
        <rect x="155" y="110" width="200" height="14" rx="7" fill="#94a3b8" opacity=".2"/>
      </g>
      <g transform="translate(460 0)">
        <rect x="0" y="0" width="420" height="190" rx="22" fill="#0f172a" stroke="#38bdf8" stroke-opacity=".16"/>
        <circle cx="90" cy="78" r="38" fill="#22c55e" opacity=".65"/>
        <rect x="55" y="122" width="70" height="46" rx="23" fill="#22c55e" opacity=".28"/>
        <rect x="155" y="55" width="220" height="18" rx="9" fill="#94a3b8" opacity=".35"/>
        <rect x="155" y="85" width="170" height="14" rx="7" fill="#94a3b8" opacity=".25"/>
        <rect x="155" y="110" width="200" height="14" rx="7" fill="#94a3b8" opacity=".2"/>
      </g>
      <g transform="translate(0 230)">
        <rect x="0" y="0" width="420" height="190" rx="22" fill="#0f172a" stroke="#38bdf8" stroke-opacity=".16"/>
        <circle cx="90" cy="78" r="38" fill="#f59e0b" opacity=".6"/>
        <rect x="55" y="122" width="70" height="46" rx="23" fill="#f59e0b" opacity=".22"/>
        <rect x="155" y="55" width="220" height="18" rx="9" fill="#94a3b8" opacity=".35"/>
        <rect x="155" y="85" width="170" height="14" rx="7" fill="#94a3b8" opacity=".25"/>
        <rect x="155" y="110" width="200" height="14" rx="7" fill="#94a3b8" opacity=".2"/>
      </g>
      <g transform="translate(460 230)">
        <rect x="0" y="0" width="420" height="190" rx="22" fill="#0f172a" stroke="#38bdf8" stroke-opacity=".16"/>
        <circle cx="90" cy="78" r="38" fill="#a78bfa" opacity=".6"/>
        <rect x="55" y="122" width="70" height="46" rx="23" fill="#a78bfa" opacity=".22"/>
        <rect x="155" y="55" width="220" height="18" rx="9" fill="#94a3b8" opacity=".35"/>
        <rect x="155" y="85" width="170" height="14" rx="7" fill="#94a3b8" opacity=".25"/>
        <rect x="155" y="110" width="200" height="14" rx="7" fill="#94a3b8" opacity=".2"/>
      </g>
    </g>
  </g>
</svg>
