<svg xmlns="http://www.w3.org/2000/svg" width="1280" height="720" viewBox="0 0 1280 720">
  <defs>
    <linearGradient id="g5" x1="0" y1="0" x2="1" y2="1">
      <stop offset="0" stop-color="#38bdf8" stop-opacity=".28"/>
      <stop offset="1" stop-color="#0ea5e9" stop-opacity=".06"/>
    </linearGradient>
    <filter id="s5" x="-20%" y="-20%" width="140%" height="140%">
      <feDropShadow dx="0" dy="12" stdDeviation="16" flood-color="#000" flood-opacity=".35"/>
    </filter>
  </defs>

  <g filter="url(#s5)">
    <rect x="160" y="110" width="960" height="520" rx="28" fill="#0b1223" stroke="#38bdf8" stroke-opacity=".22" stroke-width="2"/>

    <!-- Sidebar -->
    <rect x="190" y="150" width="190" height="450" rx="20" fill="#0f172a" stroke="#38bdf8" stroke-opacity=".12"/>
    <rect x="215" y="185" width="140" height="18" rx="9" fill="#38bdf8" opacity=".55"/>
    <g fill="#94a3b8" opacity=".25">
      <rect x="215" y="230" width="140" height="14" rx="7"/>
      <rect x="215" y="260" width="120" height="14" rx="7"/>
      <rect x="215" y="290" width="135" height="14" rx="7"/>
      <rect x="215" y="320" width="110" height="14" rx="7"/>
      <rect x="215" y="350" width="130" height="14" rx="7"/>
    </g>

    <!-- Main cards -->
    <rect x="410" y="150" width="680" height="110" rx="22" fill="url(#g5)" stroke="#38bdf8" stroke-opacity=".18"/>
    <rect x="410" y="285" width="330" height="170" rx="22" fill="#0f172a" stroke="#38bdf8" stroke-opacity=".12"/>
    <rect x="760" y="285" width="330" height="170" rx="22" fill="#0f172a" stroke="#38bdf8" stroke-opacity=".12"/>
    <rect x="410" y="475" width="680" height="125" rx="22" fill="#0f172a" stroke="#38bdf8" stroke-opacity=".10"/>

    <!-- mini chart -->
    <path d="M470 410 L520 360 L575 390 L640 330 L700 350" fill="none" stroke="#22c55e" stroke-width="7" stroke-linecap="round" opacity=".75"/>
    <path d="M820 410 L860 380 L900 405 L960 360 L1020 380" fill="none" stroke="#38bdf8" stroke-width="7" stroke-linecap="round" opacity=".85"/>
  </g>
</svg>
