<svg xmlns="http://www.w3.org/2000/svg" width="1280" height="720" viewBox="0 0 1280 720">
  <defs>
    <filter id="s19" x="-20%" y="-20%" width="140%" height="140%">
      <feDropShadow dx="0" dy="12" stdDeviation="16" flood-color="#000" flood-opacity=".35"/>
    </filter>
  </defs>

  <g filter="url(#s19)">
    <rect x="210" y="140" width="860" height="440" rx="28" fill="#0b1223" stroke="#38bdf8" stroke-opacity=".22" stroke-width="2"/>

    <!-- people + clipboard -->
    <g transform="translate(300 240)" opacity=".9">
      <circle cx="90" cy="80" r="40" fill="#38bdf8" opacity=".6"/>
      <rect x="45" y="125" width="90" height="70" rx="28" fill="#38bdf8" opacity=".22"/>

      <circle cx="230" cy="70" r="34" fill="#22c55e" opacity=".5"/>
      <rect x="192" y="108" width="76" height="62" rx="26" fill="#22c55e" opacity=".18"/>

      <circle cx="360" cy="85" r="28" fill="#f59e0b" opacity=".45"/>
      <rect x="330" y="115" width="60" height="56" rx="22" fill="#f59e0b" opacity=".14"/>
    </g>

    <g transform="translate(760 230)">
      <rect x="0" y="0" width="260" height="320" rx="22" fill="#0f172a" stroke="#38bdf8" stroke-opacity=".14"/>
      <rect x="30" y="40" width="180" height="20" rx="10" fill="#94a3b8" opacity=".28"/>
      <g fill="#94a3b8" opacity=".22">
        <rect x="30" y="85" width="200" height="14" rx="7"/>
        <rect x="30" y="115" width="180" height="14" rx="7"/>
        <rect x="30" y="145" width="210" height="14" rx="7"/>
        <rect x="30" y="190" width="160" height="14" rx="7"/>
        <rect x="30" y="220" width="200" height="14" rx="7"/>
        <rect x="30" y="250" width="140" height="14" rx="7"/>
      </g>
      <rect x="30" y="280" width="120" height="22" rx="11" fill="#22c55e" opacity=".18"/>
    </g>
  </g>
</svg>
